<svg width="64" height="64" xmlns="http://www.w3.org/2000/svg">

 <g>
  <title>background</title>
  <rect fill="none" id="canvas_background" height="402" width="582" y="-1" x="-1"/>
 </g>
 <g>
  <title>Layer 1</title>
  <path fill="#ffffff" id="Fill-38" d="m32,55.9c-13.2,0 -23.9,-10.7 -23.9,-23.9c0,-13.2 10.7,-23.9 23.9,-23.9s23.9,10.7 23.9,23.9c0,13.2 -10.7,23.9 -23.9,23.9l0,0zm0,-45.2c-11.7,0 -21.3,9.6 -21.3,21.3s9.6,21.3 21.3,21.3s21.3,-9.6 21.3,-21.3s-9.6,-21.3 -21.3,-21.3l0,0z" class="st0"/>
  <polygon fill="#ffffff" points="19.299999237060547,30.45321723818779 44.70000076293945,30.45321723818779 44.70000076293945,33.25320503115654 19.299999237060547,33.25320503115654 " id="Fill-39" class="st0"/>
  <polygon fill="#ffffff" points="30.59999990463257,19.29998779296875 33.40000009536743,19.29998779296875 33.40000009536743,44.69999694824219 30.59999990463257,44.69999694824219 " id="Fill-40" class="st0"/>
 </g>
</svg>